<mxfile host="Electron" modified="2024-06-04T11:04:33.140Z" agent="Mozilla/5.0 (Windows NT 10.0; Win64; x64) AppleWebKit/537.36 (KHTML, like Gecko) draw.io/24.4.8 Chrome/124.0.6367.207 Electron/30.0.6 Safari/537.36" etag="pdRVmwCmLet6arUwouv_" version="24.4.8" type="device">
  <diagram id="ctVOtC3z-g2fLg-qEmHF" name="Page-1">
    <mxGraphModel dx="1290" dy="1790" grid="1" gridSize="10" guides="1" tooltips="1" connect="1" arrows="1" fold="1" page="1" pageScale="1" pageWidth="827" pageHeight="1169" math="0" shadow="0">
      <root>
        <mxCell id="0" />
        <mxCell id="1" parent="0" />
        <mxCell id="fvp4PJZRVBBfH2yGS6y3-30" style="edgeStyle=orthogonalEdgeStyle;rounded=0;orthogonalLoop=1;jettySize=auto;html=1;" edge="1" parent="1" source="HaXKUH4ZEj_nUbC7WMQe-1" target="fvp4PJZRVBBfH2yGS6y3-20">
          <mxGeometry relative="1" as="geometry" />
        </mxCell>
        <mxCell id="HaXKUH4ZEj_nUbC7WMQe-1" value="Facture" style="swimlane;fontStyle=0;childLayout=stackLayout;horizontal=1;startSize=26;fillColor=none;horizontalStack=0;resizeParent=1;resizeParentMax=0;resizeLast=0;collapsible=1;marginBottom=0;" parent="1" vertex="1">
          <mxGeometry x="570" y="1010" width="140" height="156" as="geometry" />
        </mxCell>
        <mxCell id="HaXKUH4ZEj_nUbC7WMQe-2" value="-id: int" style="text;strokeColor=none;fillColor=none;align=left;verticalAlign=top;spacingLeft=4;spacingRight=4;overflow=hidden;rotatable=0;points=[[0,0.5],[1,0.5]];portConstraint=eastwest;" parent="HaXKUH4ZEj_nUbC7WMQe-1" vertex="1">
          <mxGeometry y="26" width="140" height="26" as="geometry" />
        </mxCell>
        <mxCell id="HaXKUH4ZEj_nUbC7WMQe-3" value="-client:Client" style="text;strokeColor=none;fillColor=none;align=left;verticalAlign=top;spacingLeft=4;spacingRight=4;overflow=hidden;rotatable=0;points=[[0,0.5],[1,0.5]];portConstraint=eastwest;" parent="HaXKUH4ZEj_nUbC7WMQe-1" vertex="1">
          <mxGeometry y="52" width="140" height="26" as="geometry" />
        </mxCell>
        <mxCell id="HaXKUH4ZEj_nUbC7WMQe-4" value="-date:Date&#xa;" style="text;strokeColor=none;fillColor=none;align=left;verticalAlign=top;spacingLeft=4;spacingRight=4;overflow=hidden;rotatable=0;points=[[0,0.5],[1,0.5]];portConstraint=eastwest;" parent="HaXKUH4ZEj_nUbC7WMQe-1" vertex="1">
          <mxGeometry y="78" width="140" height="26" as="geometry" />
        </mxCell>
        <mxCell id="HaXKUH4ZEj_nUbC7WMQe-13" value="-montant :double" style="text;strokeColor=none;fillColor=none;align=left;verticalAlign=top;spacingLeft=4;spacingRight=4;overflow=hidden;rotatable=0;points=[[0,0.5],[1,0.5]];portConstraint=eastwest;" parent="HaXKUH4ZEj_nUbC7WMQe-1" vertex="1">
          <mxGeometry y="104" width="140" height="26" as="geometry" />
        </mxCell>
        <mxCell id="HaXKUH4ZEj_nUbC7WMQe-20" value="-etatFacture: String" style="text;align=left;verticalAlign=top;spacingLeft=4;spacingRight=4;overflow=hidden;rotatable=0;points=[[0,0.5],[1,0.5]];portConstraint=eastwest;labelBorderColor=none;fillColor=#ffffff;gradientColor=#ffffff;gradientDirection=north;" parent="HaXKUH4ZEj_nUbC7WMQe-1" vertex="1">
          <mxGeometry y="130" width="140" height="26" as="geometry" />
        </mxCell>
        <mxCell id="ccQdBkuDIA9VVCAcw9cG-12" value="Paiement" style="swimlane;fontStyle=0;childLayout=stackLayout;horizontal=1;startSize=26;fillColor=none;horizontalStack=0;resizeParent=1;resizeParentMax=0;resizeLast=0;collapsible=1;marginBottom=0;" parent="1" vertex="1">
          <mxGeometry x="50" y="1010" width="140" height="238" as="geometry" />
        </mxCell>
        <mxCell id="ccQdBkuDIA9VVCAcw9cG-13" value="-id: int" style="text;strokeColor=none;fillColor=none;align=left;verticalAlign=top;spacingLeft=4;spacingRight=4;overflow=hidden;rotatable=0;points=[[0,0.5],[1,0.5]];portConstraint=eastwest;" parent="ccQdBkuDIA9VVCAcw9cG-12" vertex="1">
          <mxGeometry y="26" width="140" height="26" as="geometry" />
        </mxCell>
        <mxCell id="ccQdBkuDIA9VVCAcw9cG-14" value="-facture: Facture" style="text;strokeColor=none;fillColor=none;align=left;verticalAlign=top;spacingLeft=4;spacingRight=4;overflow=hidden;rotatable=0;points=[[0,0.5],[1,0.5]];portConstraint=eastwest;" parent="ccQdBkuDIA9VVCAcw9cG-12" vertex="1">
          <mxGeometry y="52" width="140" height="26" as="geometry" />
        </mxCell>
        <mxCell id="ccQdBkuDIA9VVCAcw9cG-15" value="-date:Date&#xa;" style="text;strokeColor=none;fillColor=none;align=left;verticalAlign=top;spacingLeft=4;spacingRight=4;overflow=hidden;rotatable=0;points=[[0,0.5],[1,0.5]];portConstraint=eastwest;" parent="ccQdBkuDIA9VVCAcw9cG-12" vertex="1">
          <mxGeometry y="78" width="140" height="26" as="geometry" />
        </mxCell>
        <mxCell id="ccQdBkuDIA9VVCAcw9cG-16" value="-montant :double" style="text;strokeColor=none;fillColor=none;align=left;verticalAlign=top;spacingLeft=4;spacingRight=4;overflow=hidden;rotatable=0;points=[[0,0.5],[1,0.5]];portConstraint=eastwest;" parent="ccQdBkuDIA9VVCAcw9cG-12" vertex="1">
          <mxGeometry y="104" width="140" height="26" as="geometry" />
        </mxCell>
        <mxCell id="ccQdBkuDIA9VVCAcw9cG-20" value="" style="shape=link;html=1;width=0;exitX=1.011;exitY=0.962;exitDx=0;exitDy=0;exitPerimeter=0;" parent="ccQdBkuDIA9VVCAcw9cG-12" edge="1">
          <mxGeometry width="100" relative="1" as="geometry">
            <mxPoint x="141.53999999999996" y="130.00199999999995" as="sourcePoint" />
            <mxPoint y="130.99" as="targetPoint" />
          </mxGeometry>
        </mxCell>
        <mxCell id="ccQdBkuDIA9VVCAcw9cG-17" value="+enregistrerPaiement()" style="text;strokeColor=none;fillColor=none;align=left;verticalAlign=top;spacingLeft=4;spacingRight=4;overflow=hidden;rotatable=0;points=[[0,0.5],[1,0.5]];portConstraint=eastwest;" parent="ccQdBkuDIA9VVCAcw9cG-12" vertex="1">
          <mxGeometry y="130" width="140" height="26" as="geometry" />
        </mxCell>
        <mxCell id="ccQdBkuDIA9VVCAcw9cG-18" value="+genererRecus()" style="text;align=left;verticalAlign=top;spacingLeft=4;spacingRight=4;overflow=hidden;rotatable=0;points=[[0,0.5],[1,0.5]];portConstraint=eastwest;labelBorderColor=none;fillColor=#ffffff;gradientColor=#ffffff;gradientDirection=north;" parent="ccQdBkuDIA9VVCAcw9cG-12" vertex="1">
          <mxGeometry y="156" width="140" height="26" as="geometry" />
        </mxCell>
        <mxCell id="ccQdBkuDIA9VVCAcw9cG-19" value="+genererAccuseRecep()" style="text;fillColor=none;align=left;verticalAlign=top;spacingLeft=4;spacingRight=4;overflow=hidden;rotatable=0;points=[[0,0.5],[1,0.5]];portConstraint=eastwest;" parent="ccQdBkuDIA9VVCAcw9cG-12" vertex="1">
          <mxGeometry y="182" width="140" height="28" as="geometry" />
        </mxCell>
        <mxCell id="ccQdBkuDIA9VVCAcw9cG-21" value="+genererRappels()" style="text;fillColor=none;align=left;verticalAlign=top;spacingLeft=4;spacingRight=4;overflow=hidden;rotatable=0;points=[[0,0.5],[1,0.5]];portConstraint=eastwest;" parent="ccQdBkuDIA9VVCAcw9cG-12" vertex="1">
          <mxGeometry y="210" width="140" height="28" as="geometry" />
        </mxCell>
        <mxCell id="fvp4PJZRVBBfH2yGS6y3-32" style="edgeStyle=orthogonalEdgeStyle;rounded=0;orthogonalLoop=1;jettySize=auto;html=1;" edge="1" parent="1" source="ccQdBkuDIA9VVCAcw9cG-25" target="ccQdBkuDIA9VVCAcw9cG-12">
          <mxGeometry relative="1" as="geometry" />
        </mxCell>
        <mxCell id="ccQdBkuDIA9VVCAcw9cG-25" value="Client" style="swimlane;fontStyle=0;childLayout=stackLayout;horizontal=1;startSize=26;fillColor=none;horizontalStack=0;resizeParent=1;resizeParentMax=0;resizeLast=0;collapsible=1;marginBottom=0;" parent="1" vertex="1">
          <mxGeometry x="60" y="150" width="140" height="186" as="geometry" />
        </mxCell>
        <mxCell id="ccQdBkuDIA9VVCAcw9cG-26" value="-id: int" style="text;strokeColor=none;fillColor=none;align=left;verticalAlign=top;spacingLeft=4;spacingRight=4;overflow=hidden;rotatable=0;points=[[0,0.5],[1,0.5]];portConstraint=eastwest;" parent="ccQdBkuDIA9VVCAcw9cG-25" vertex="1">
          <mxGeometry y="26" width="140" height="26" as="geometry" />
        </mxCell>
        <mxCell id="ccQdBkuDIA9VVCAcw9cG-27" value="-nom: String" style="text;strokeColor=none;fillColor=none;align=left;verticalAlign=top;spacingLeft=4;spacingRight=4;overflow=hidden;rotatable=0;points=[[0,0.5],[1,0.5]];portConstraint=eastwest;" parent="ccQdBkuDIA9VVCAcw9cG-25" vertex="1">
          <mxGeometry y="52" width="140" height="26" as="geometry" />
        </mxCell>
        <mxCell id="ccQdBkuDIA9VVCAcw9cG-28" value="-email:String" style="text;strokeColor=none;fillColor=none;align=left;verticalAlign=top;spacingLeft=4;spacingRight=4;overflow=hidden;rotatable=0;points=[[0,0.5],[1,0.5]];portConstraint=eastwest;" parent="ccQdBkuDIA9VVCAcw9cG-25" vertex="1">
          <mxGeometry y="78" width="140" height="26" as="geometry" />
        </mxCell>
        <mxCell id="ccQdBkuDIA9VVCAcw9cG-29" value="-adresse: String" style="text;strokeColor=none;fillColor=none;align=left;verticalAlign=top;spacingLeft=4;spacingRight=4;overflow=hidden;rotatable=0;points=[[0,0.5],[1,0.5]];portConstraint=eastwest;" parent="ccQdBkuDIA9VVCAcw9cG-25" vertex="1">
          <mxGeometry y="104" width="140" height="26" as="geometry" />
        </mxCell>
        <mxCell id="ccQdBkuDIA9VVCAcw9cG-33" value="" style="shape=link;html=1;width=0;exitX=1.011;exitY=0.962;exitDx=0;exitDy=0;exitPerimeter=0;" parent="ccQdBkuDIA9VVCAcw9cG-25" edge="1">
          <mxGeometry width="100" relative="1" as="geometry">
            <mxPoint x="141.53999999999996" y="130.00199999999995" as="sourcePoint" />
            <mxPoint y="130.99" as="targetPoint" />
          </mxGeometry>
        </mxCell>
        <mxCell id="ccQdBkuDIA9VVCAcw9cG-35" value="+genererClient()" style="text;fillColor=none;align=left;verticalAlign=top;spacingLeft=4;spacingRight=4;overflow=hidden;rotatable=0;points=[[0,0.5],[1,0.5]];portConstraint=eastwest;" parent="ccQdBkuDIA9VVCAcw9cG-25" vertex="1">
          <mxGeometry y="130" width="140" height="28" as="geometry" />
        </mxCell>
        <mxCell id="ccQdBkuDIA9VVCAcw9cG-36" value="+etat_Transaction()" style="text;fillColor=none;align=left;verticalAlign=top;spacingLeft=4;spacingRight=4;overflow=hidden;rotatable=0;points=[[0,0.5],[1,0.5]];portConstraint=eastwest;" parent="ccQdBkuDIA9VVCAcw9cG-25" vertex="1">
          <mxGeometry y="158" width="140" height="28" as="geometry" />
        </mxCell>
        <mxCell id="fvp4PJZRVBBfH2yGS6y3-17" style="edgeStyle=orthogonalEdgeStyle;rounded=0;orthogonalLoop=1;jettySize=auto;html=1;" edge="1" parent="1" source="fvp4PJZRVBBfH2yGS6y3-39" target="ccQdBkuDIA9VVCAcw9cG-25">
          <mxGeometry relative="1" as="geometry">
            <Array as="points">
              <mxPoint x="120" y="70" />
            </Array>
          </mxGeometry>
        </mxCell>
        <mxCell id="ccQdBkuDIA9VVCAcw9cG-37" value="Compte" style="swimlane;fontStyle=0;childLayout=stackLayout;horizontal=1;startSize=26;fillColor=none;horizontalStack=0;resizeParent=1;resizeParentMax=0;resizeLast=0;collapsible=1;marginBottom=0;" parent="1" vertex="1">
          <mxGeometry x="330" y="470" width="140" height="240" as="geometry" />
        </mxCell>
        <mxCell id="ccQdBkuDIA9VVCAcw9cG-38" value="-id: int" style="text;strokeColor=none;fillColor=none;align=left;verticalAlign=top;spacingLeft=4;spacingRight=4;overflow=hidden;rotatable=0;points=[[0,0.5],[1,0.5]];portConstraint=eastwest;" parent="ccQdBkuDIA9VVCAcw9cG-37" vertex="1">
          <mxGeometry y="26" width="140" height="26" as="geometry" />
        </mxCell>
        <mxCell id="ccQdBkuDIA9VVCAcw9cG-39" value="-nom:String" style="text;strokeColor=none;fillColor=none;align=left;verticalAlign=top;spacingLeft=4;spacingRight=4;overflow=hidden;rotatable=0;points=[[0,0.5],[1,0.5]];portConstraint=eastwest;" parent="ccQdBkuDIA9VVCAcw9cG-37" vertex="1">
          <mxGeometry y="52" width="140" height="26" as="geometry" />
        </mxCell>
        <mxCell id="ccQdBkuDIA9VVCAcw9cG-40" value="-solde:double" style="text;strokeColor=none;fillColor=none;align=left;verticalAlign=top;spacingLeft=4;spacingRight=4;overflow=hidden;rotatable=0;points=[[0,0.5],[1,0.5]];portConstraint=eastwest;" parent="ccQdBkuDIA9VVCAcw9cG-37" vertex="1">
          <mxGeometry y="78" width="140" height="26" as="geometry" />
        </mxCell>
        <mxCell id="ccQdBkuDIA9VVCAcw9cG-42" value="-type:String" style="text;strokeColor=none;fillColor=none;align=left;verticalAlign=top;spacingLeft=4;spacingRight=4;overflow=hidden;rotatable=0;points=[[0,0.5],[1,0.5]];portConstraint=eastwest;" parent="ccQdBkuDIA9VVCAcw9cG-37" vertex="1">
          <mxGeometry y="104" width="140" height="26" as="geometry" />
        </mxCell>
        <mxCell id="ccQdBkuDIA9VVCAcw9cG-43" value="+creerCompte()" style="text;align=left;verticalAlign=top;spacingLeft=4;spacingRight=4;overflow=hidden;rotatable=0;points=[[0,0.5],[1,0.5]];portConstraint=eastwest;labelBorderColor=none;fillColor=#ffffff;gradientColor=#ffffff;gradientDirection=north;" parent="ccQdBkuDIA9VVCAcw9cG-37" vertex="1">
          <mxGeometry y="130" width="140" height="26" as="geometry" />
        </mxCell>
        <mxCell id="ccQdBkuDIA9VVCAcw9cG-44" value="+gererCompte()" style="text;fillColor=none;align=left;verticalAlign=top;spacingLeft=4;spacingRight=4;overflow=hidden;rotatable=0;points=[[0,0.5],[1,0.5]];portConstraint=eastwest;" parent="ccQdBkuDIA9VVCAcw9cG-37" vertex="1">
          <mxGeometry y="156" width="140" height="28" as="geometry" />
        </mxCell>
        <mxCell id="ccQdBkuDIA9VVCAcw9cG-45" value="" style="shape=link;html=1;width=0;exitX=1.011;exitY=0.962;exitDx=0;exitDy=0;exitPerimeter=0;entryX=-0.006;entryY=-0.008;entryDx=0;entryDy=0;entryPerimeter=0;" parent="ccQdBkuDIA9VVCAcw9cG-37" source="ccQdBkuDIA9VVCAcw9cG-42" target="ccQdBkuDIA9VVCAcw9cG-43" edge="1">
          <mxGeometry width="100" relative="1" as="geometry">
            <mxPoint x="-100" y="59" as="sourcePoint" />
            <mxPoint y="156" as="targetPoint" />
          </mxGeometry>
        </mxCell>
        <mxCell id="ccQdBkuDIA9VVCAcw9cG-46" value="+etatTransaction()" style="text;fillColor=none;align=left;verticalAlign=top;spacingLeft=4;spacingRight=4;overflow=hidden;rotatable=0;points=[[0,0.5],[1,0.5]];portConstraint=eastwest;" parent="ccQdBkuDIA9VVCAcw9cG-37" vertex="1">
          <mxGeometry y="184" width="140" height="28" as="geometry" />
        </mxCell>
        <mxCell id="ccQdBkuDIA9VVCAcw9cG-48" value="+reconciliationBancaire()" style="text;fillColor=none;align=left;verticalAlign=top;spacingLeft=4;spacingRight=4;overflow=hidden;rotatable=0;points=[[0,0.5],[1,0.5]];portConstraint=eastwest;" parent="ccQdBkuDIA9VVCAcw9cG-37" vertex="1">
          <mxGeometry y="212" width="140" height="28" as="geometry" />
        </mxCell>
        <mxCell id="fvp4PJZRVBBfH2yGS6y3-18" style="edgeStyle=orthogonalEdgeStyle;rounded=0;orthogonalLoop=1;jettySize=auto;html=1;" edge="1" parent="1" source="fvp4PJZRVBBfH2yGS6y3-5" target="HaXKUH4ZEj_nUbC7WMQe-1">
          <mxGeometry relative="1" as="geometry">
            <Array as="points">
              <mxPoint x="670" y="829" />
            </Array>
          </mxGeometry>
        </mxCell>
        <mxCell id="fvp4PJZRVBBfH2yGS6y3-5" value="Fournisseur" style="swimlane;fontStyle=0;childLayout=stackLayout;horizontal=1;startSize=26;fillColor=none;horizontalStack=0;resizeParent=1;resizeParentMax=0;resizeLast=0;collapsible=1;marginBottom=0;" vertex="1" parent="1">
          <mxGeometry x="580" y="150" width="140" height="270" as="geometry" />
        </mxCell>
        <mxCell id="fvp4PJZRVBBfH2yGS6y3-6" value="-id: int" style="text;strokeColor=none;fillColor=none;align=left;verticalAlign=top;spacingLeft=4;spacingRight=4;overflow=hidden;rotatable=0;points=[[0,0.5],[1,0.5]];portConstraint=eastwest;" vertex="1" parent="fvp4PJZRVBBfH2yGS6y3-5">
          <mxGeometry y="26" width="140" height="26" as="geometry" />
        </mxCell>
        <mxCell id="fvp4PJZRVBBfH2yGS6y3-7" value="-nom:String" style="text;strokeColor=none;fillColor=none;align=left;verticalAlign=top;spacingLeft=4;spacingRight=4;overflow=hidden;rotatable=0;points=[[0,0.5],[1,0.5]];portConstraint=eastwest;" vertex="1" parent="fvp4PJZRVBBfH2yGS6y3-5">
          <mxGeometry y="52" width="140" height="26" as="geometry" />
        </mxCell>
        <mxCell id="fvp4PJZRVBBfH2yGS6y3-8" value="-email:String" style="text;strokeColor=none;fillColor=none;align=left;verticalAlign=top;spacingLeft=4;spacingRight=4;overflow=hidden;rotatable=0;points=[[0,0.5],[1,0.5]];portConstraint=eastwest;" vertex="1" parent="fvp4PJZRVBBfH2yGS6y3-5">
          <mxGeometry y="78" width="140" height="26" as="geometry" />
        </mxCell>
        <mxCell id="fvp4PJZRVBBfH2yGS6y3-9" value="-adresse:String" style="text;strokeColor=none;fillColor=none;align=left;verticalAlign=top;spacingLeft=4;spacingRight=4;overflow=hidden;rotatable=0;points=[[0,0.5],[1,0.5]];portConstraint=eastwest;" vertex="1" parent="fvp4PJZRVBBfH2yGS6y3-5">
          <mxGeometry y="104" width="140" height="26" as="geometry" />
        </mxCell>
        <mxCell id="fvp4PJZRVBBfH2yGS6y3-12" value="" style="shape=link;html=1;width=0;exitX=1.011;exitY=0.962;exitDx=0;exitDy=0;exitPerimeter=0;entryX=-0.006;entryY=-0.008;entryDx=0;entryDy=0;entryPerimeter=0;" edge="1" parent="fvp4PJZRVBBfH2yGS6y3-5" source="fvp4PJZRVBBfH2yGS6y3-9">
          <mxGeometry width="100" relative="1" as="geometry">
            <mxPoint x="-100" y="59" as="sourcePoint" />
            <mxPoint x="-0.8399999999999181" y="129.79199999999992" as="targetPoint" />
          </mxGeometry>
        </mxCell>
        <mxCell id="fvp4PJZRVBBfH2yGS6y3-13" value="+etatTransaction()" style="text;fillColor=none;align=left;verticalAlign=top;spacingLeft=4;spacingRight=4;overflow=hidden;rotatable=0;points=[[0,0.5],[1,0.5]];portConstraint=eastwest;" vertex="1" parent="fvp4PJZRVBBfH2yGS6y3-5">
          <mxGeometry y="130" width="140" height="28" as="geometry" />
        </mxCell>
        <mxCell id="fvp4PJZRVBBfH2yGS6y3-56" value="+creerFacture()" style="text;fillColor=none;align=left;verticalAlign=top;spacingLeft=4;spacingRight=4;overflow=hidden;rotatable=0;points=[[0,0.5],[1,0.5]];portConstraint=eastwest;" vertex="1" parent="fvp4PJZRVBBfH2yGS6y3-5">
          <mxGeometry y="158" width="140" height="28" as="geometry" />
        </mxCell>
        <mxCell id="fvp4PJZRVBBfH2yGS6y3-57" value="+supprimerFacture()" style="text;fillColor=none;align=left;verticalAlign=top;spacingLeft=4;spacingRight=4;overflow=hidden;rotatable=0;points=[[0,0.5],[1,0.5]];portConstraint=eastwest;" vertex="1" parent="fvp4PJZRVBBfH2yGS6y3-5">
          <mxGeometry y="186" width="140" height="28" as="geometry" />
        </mxCell>
        <mxCell id="fvp4PJZRVBBfH2yGS6y3-58" value="+ValiderPaiement()" style="text;fillColor=none;align=left;verticalAlign=top;spacingLeft=4;spacingRight=4;overflow=hidden;rotatable=0;points=[[0,0.5],[1,0.5]];portConstraint=eastwest;" vertex="1" parent="fvp4PJZRVBBfH2yGS6y3-5">
          <mxGeometry y="214" width="140" height="28" as="geometry" />
        </mxCell>
        <mxCell id="fvp4PJZRVBBfH2yGS6y3-59" value="+editerFacture()" style="text;fillColor=none;align=left;verticalAlign=top;spacingLeft=4;spacingRight=4;overflow=hidden;rotatable=0;points=[[0,0.5],[1,0.5]];portConstraint=eastwest;" vertex="1" parent="fvp4PJZRVBBfH2yGS6y3-5">
          <mxGeometry y="242" width="140" height="28" as="geometry" />
        </mxCell>
        <mxCell id="fvp4PJZRVBBfH2yGS6y3-16" style="edgeStyle=orthogonalEdgeStyle;rounded=0;orthogonalLoop=1;jettySize=auto;html=1;entryX=0.577;entryY=-0.003;entryDx=0;entryDy=0;entryPerimeter=0;" edge="1" parent="1" source="fvp4PJZRVBBfH2yGS6y3-33" target="fvp4PJZRVBBfH2yGS6y3-5">
          <mxGeometry relative="1" as="geometry" />
        </mxCell>
        <mxCell id="fvp4PJZRVBBfH2yGS6y3-31" style="edgeStyle=orthogonalEdgeStyle;rounded=0;orthogonalLoop=1;jettySize=auto;html=1;" edge="1" parent="1" source="fvp4PJZRVBBfH2yGS6y3-20" target="ccQdBkuDIA9VVCAcw9cG-25">
          <mxGeometry relative="1" as="geometry">
            <Array as="points">
              <mxPoint x="370" y="859" />
              <mxPoint x="220" y="859" />
              <mxPoint x="220" y="243" />
            </Array>
          </mxGeometry>
        </mxCell>
        <mxCell id="fvp4PJZRVBBfH2yGS6y3-20" value="Email" style="swimlane;fontStyle=0;childLayout=stackLayout;horizontal=1;startSize=26;fillColor=none;horizontalStack=0;resizeParent=1;resizeParentMax=0;resizeLast=0;collapsible=1;marginBottom=0;" vertex="1" parent="1">
          <mxGeometry x="300" y="1010" width="140" height="220" as="geometry" />
        </mxCell>
        <mxCell id="fvp4PJZRVBBfH2yGS6y3-21" value="-id: int" style="text;strokeColor=none;fillColor=none;align=left;verticalAlign=top;spacingLeft=4;spacingRight=4;overflow=hidden;rotatable=0;points=[[0,0.5],[1,0.5]];portConstraint=eastwest;" vertex="1" parent="fvp4PJZRVBBfH2yGS6y3-20">
          <mxGeometry y="26" width="140" height="26" as="geometry" />
        </mxCell>
        <mxCell id="fvp4PJZRVBBfH2yGS6y3-22" value="-destinaire:Client" style="text;strokeColor=none;fillColor=none;align=left;verticalAlign=top;spacingLeft=4;spacingRight=4;overflow=hidden;rotatable=0;points=[[0,0.5],[1,0.5]];portConstraint=eastwest;" vertex="1" parent="fvp4PJZRVBBfH2yGS6y3-20">
          <mxGeometry y="52" width="140" height="26" as="geometry" />
        </mxCell>
        <mxCell id="fvp4PJZRVBBfH2yGS6y3-23" value="-date:Date&#xa;" style="text;strokeColor=none;fillColor=none;align=left;verticalAlign=top;spacingLeft=4;spacingRight=4;overflow=hidden;rotatable=0;points=[[0,0.5],[1,0.5]];portConstraint=eastwest;" vertex="1" parent="fvp4PJZRVBBfH2yGS6y3-20">
          <mxGeometry y="78" width="140" height="26" as="geometry" />
        </mxCell>
        <mxCell id="fvp4PJZRVBBfH2yGS6y3-24" value="-sujet:String" style="text;strokeColor=none;fillColor=none;align=left;verticalAlign=top;spacingLeft=4;spacingRight=4;overflow=hidden;rotatable=0;points=[[0,0.5],[1,0.5]];portConstraint=eastwest;" vertex="1" parent="fvp4PJZRVBBfH2yGS6y3-20">
          <mxGeometry y="104" width="140" height="26" as="geometry" />
        </mxCell>
        <mxCell id="fvp4PJZRVBBfH2yGS6y3-46" value="-corps:String" style="text;strokeColor=none;fillColor=none;align=left;verticalAlign=top;spacingLeft=4;spacingRight=4;overflow=hidden;rotatable=0;points=[[0,0.5],[1,0.5]];portConstraint=eastwest;" vertex="1" parent="fvp4PJZRVBBfH2yGS6y3-20">
          <mxGeometry y="130" width="140" height="40" as="geometry" />
        </mxCell>
        <mxCell id="fvp4PJZRVBBfH2yGS6y3-47" value="+envoyerFacture()" style="text;strokeColor=none;fillColor=none;align=left;verticalAlign=top;spacingLeft=4;spacingRight=4;overflow=hidden;rotatable=0;points=[[0,0.5],[1,0.5]];portConstraint=eastwest;" vertex="1" parent="fvp4PJZRVBBfH2yGS6y3-20">
          <mxGeometry y="170" width="140" height="50" as="geometry" />
        </mxCell>
        <mxCell id="fvp4PJZRVBBfH2yGS6y3-48" value="" style="endArrow=none;html=1;rounded=0;entryX=1.009;entryY=0.715;entryDx=0;entryDy=0;entryPerimeter=0;exitX=-0.003;exitY=0.715;exitDx=0;exitDy=0;exitPerimeter=0;" edge="1" parent="fvp4PJZRVBBfH2yGS6y3-20" source="fvp4PJZRVBBfH2yGS6y3-46" target="fvp4PJZRVBBfH2yGS6y3-46">
          <mxGeometry width="50" height="50" relative="1" as="geometry">
            <mxPoint x="190" y="-30" as="sourcePoint" />
            <mxPoint x="240" y="-80" as="targetPoint" />
            <Array as="points" />
          </mxGeometry>
        </mxCell>
        <mxCell id="fvp4PJZRVBBfH2yGS6y3-33" value="Utilisateur" style="swimlane;fontStyle=0;childLayout=stackLayout;horizontal=1;startSize=26;fillColor=none;horizontalStack=0;resizeParent=1;resizeParentMax=0;resizeLast=0;collapsible=1;marginBottom=0;" vertex="1" parent="1">
          <mxGeometry x="310" y="-90" width="140" height="184" as="geometry" />
        </mxCell>
        <mxCell id="fvp4PJZRVBBfH2yGS6y3-34" value="-id: int" style="text;strokeColor=none;fillColor=none;align=left;verticalAlign=top;spacingLeft=4;spacingRight=4;overflow=hidden;rotatable=0;points=[[0,0.5],[1,0.5]];portConstraint=eastwest;" vertex="1" parent="fvp4PJZRVBBfH2yGS6y3-33">
          <mxGeometry y="26" width="140" height="26" as="geometry" />
        </mxCell>
        <mxCell id="fvp4PJZRVBBfH2yGS6y3-35" value="-nom:String" style="text;strokeColor=none;fillColor=none;align=left;verticalAlign=top;spacingLeft=4;spacingRight=4;overflow=hidden;rotatable=0;points=[[0,0.5],[1,0.5]];portConstraint=eastwest;" vertex="1" parent="fvp4PJZRVBBfH2yGS6y3-33">
          <mxGeometry y="52" width="140" height="26" as="geometry" />
        </mxCell>
        <mxCell id="fvp4PJZRVBBfH2yGS6y3-36" value="-email:String" style="text;strokeColor=none;fillColor=none;align=left;verticalAlign=top;spacingLeft=4;spacingRight=4;overflow=hidden;rotatable=0;points=[[0,0.5],[1,0.5]];portConstraint=eastwest;" vertex="1" parent="fvp4PJZRVBBfH2yGS6y3-33">
          <mxGeometry y="78" width="140" height="26" as="geometry" />
        </mxCell>
        <mxCell id="fvp4PJZRVBBfH2yGS6y3-37" value="-role:String" style="text;strokeColor=none;fillColor=none;align=left;verticalAlign=top;spacingLeft=4;spacingRight=4;overflow=hidden;rotatable=0;points=[[0,0.5],[1,0.5]];portConstraint=eastwest;" vertex="1" parent="fvp4PJZRVBBfH2yGS6y3-33">
          <mxGeometry y="104" width="140" height="26" as="geometry" />
        </mxCell>
        <mxCell id="fvp4PJZRVBBfH2yGS6y3-38" value="+creerUtilisateur()" style="text;align=left;verticalAlign=top;spacingLeft=4;spacingRight=4;overflow=hidden;rotatable=0;points=[[0,0.5],[1,0.5]];portConstraint=eastwest;labelBorderColor=none;fillColor=#ffffff;gradientColor=#ffffff;gradientDirection=north;" vertex="1" parent="fvp4PJZRVBBfH2yGS6y3-33">
          <mxGeometry y="130" width="140" height="26" as="geometry" />
        </mxCell>
        <mxCell id="fvp4PJZRVBBfH2yGS6y3-39" value="+gererPermissions()" style="text;fillColor=none;align=left;verticalAlign=top;spacingLeft=4;spacingRight=4;overflow=hidden;rotatable=0;points=[[0,0.5],[1,0.5]];portConstraint=eastwest;" vertex="1" parent="fvp4PJZRVBBfH2yGS6y3-33">
          <mxGeometry y="156" width="140" height="28" as="geometry" />
        </mxCell>
        <mxCell id="fvp4PJZRVBBfH2yGS6y3-40" value="" style="shape=link;html=1;width=0;exitX=1.011;exitY=0.962;exitDx=0;exitDy=0;exitPerimeter=0;entryX=-0.006;entryY=-0.008;entryDx=0;entryDy=0;entryPerimeter=0;" edge="1" parent="fvp4PJZRVBBfH2yGS6y3-33" source="fvp4PJZRVBBfH2yGS6y3-37" target="fvp4PJZRVBBfH2yGS6y3-38">
          <mxGeometry width="100" relative="1" as="geometry">
            <mxPoint x="-100" y="59" as="sourcePoint" />
            <mxPoint y="156" as="targetPoint" />
          </mxGeometry>
        </mxCell>
      </root>
    </mxGraphModel>
  </diagram>
</mxfile>
